<svg width="64" height="64" viewBox="0 0 64 64" xmlns="http://www.w3.org/2000/svg">
  <!-- Background -->
  <rect width="64" height="64" fill="#2D2D2D" rx="8"/>
  
  <!-- Accent stripe -->
  <rect width="64" height="4" fill="#BC9E7B" rx="8"/>
  
  <!-- Calculator icon -->
  <rect x="12" y="16" width="40" height="32" fill="#FFFFFF" rx="4"/>
  <rect x="14" y="18" width="36" height="6" fill="#2D2D2D" rx="2"/>
  
  <!-- Calculator display -->
  <rect x="16" y="20" width="32" height="4" fill="#4CAF50" rx="1"/>
  <text x="18" y="23" font-family="monospace" font-size="2" fill="#FFFFFF">S$</text>
  
  <!-- Calculator buttons -->
  <rect x="16" y="28" width="6" height="4" fill="#BC9E7B" rx="1"/>
  <rect x="24" y="28" width="6" height="4" fill="#BC9E7B" rx="1"/>
  <rect x="32" y="28" width="6" height="4" fill="#BC9E7B" rx="1"/>
  <rect x="40" y="28" width="6" height="4" fill="#BC9E7B" rx="1"/>
  
  <rect x="16" y="34" width="6" height="4" fill="#BC9E7B" rx="1"/>
  <rect x="24" y="34" width="6" height="4" fill="#BC9E7B" rx="1"/>
  <rect x="32" y="34" width="6" height="4" fill="#BC9E7B" rx="1"/>
  <rect x="40" y="34" width="6" height="4" fill="#BC9E7B" rx="1"/>
  
  <rect x="16" y="40" width="6" height="4" fill="#BC9E7B" rx="1"/>
  <rect x="24" y="40" width="6" height="4" fill="#BC9E7B" rx="1"/>
  <rect x="32" y="40" width="6" height="4" fill="#BC9E7B" rx="1"/>
  <rect x="40" y="40" width="6" height="4" fill="#BC9E7B" rx="1"/>
  
  <!-- Singapore flag accent -->
  <circle cx="50" cy="50" r="6" fill="#FF0000"/>
  <circle cx="50" cy="50" r="4" fill="#FFFFFF"/>
  <circle cx="50" cy="50" r="2" fill="#FF0000"/>
</svg>
