<svg width="200" height="60" viewBox="0 0 200 60" xmlns="http://www.w3.org/2000/svg">
  <!-- Background -->
  <rect width="200" height="60" fill="#2D2D2D" rx="8"/>
  
  <!-- Accent stripe -->
  <rect width="200" height="4" fill="#BC9E7B" rx="8"/>
  
  <!-- Singapore flag colors accent -->
  <rect width="200" height="1" y="4" fill="#FF0000"/>
  <rect width="200" height="1" y="5" fill="#FFFFFF"/>
  
  <!-- Logo icon area -->
  <rect x="8" y="12" width="36" height="36" fill="#BC9E7B" rx="4"/>
  
  <!-- Calculator icon -->
  <rect x="12" y="16" width="28" height="28" fill="#FFFFFF" rx="2"/>
  <rect x="14" y="18" width="24" height="4" fill="#2D2D2D" rx="1"/>
  
  <!-- Calculator buttons -->
  <rect x="14" y="24" width="4" height="3" fill="#BC9E7B" rx="0.5"/>
  <rect x="20" y="24" width="4" height="3" fill="#BC9E7B" rx="0.5"/>
  <rect x="26" y="24" width="4" height="3" fill="#BC9E7B" rx="0.5"/>
  <rect x="32" y="24" width="4" height="3" fill="#BC9E7B" rx="0.5"/>
  
  <rect x="14" y="29" width="4" height="3" fill="#BC9E7B" rx="0.5"/>
  <rect x="20" y="29" width="4" height="3" fill="#BC9E7B" rx="0.5"/>
  <rect x="26" y="29" width="4" height="3" fill="#BC9E7B" rx="0.5"/>
  <rect x="32" y="29" width="4" height="3" fill="#BC9E7B" rx="0.5"/>
  
  <rect x="14" y="34" width="4" height="3" fill="#BC9E7B" rx="0.5"/>
  <rect x="20" y="34" width="4" height="3" fill="#BC9E7B" rx="0.5"/>
  <rect x="26" y="34" width="4" height="3" fill="#BC9E7B" rx="0.5"/>
  <rect x="32" y="34" width="4" height="3" fill="#BC9E7B" rx="0.5"/>
  
  <rect x="14" y="39" width="4" height="3" fill="#BC9E7B" rx="0.5"/>
  <rect x="20" y="39" width="4" height="3" fill="#BC9E7B" rx="0.5"/>
  <rect x="26" y="39" width="4" height="3" fill="#BC9E7B" rx="0.5"/>
  <rect x="32" y="39" width="4" height="3" fill="#BC9E7B" rx="0.5"/>
  
  <!-- Singapore flag icon -->
  <circle cx="52" cy="30" r="8" fill="#FF0000"/>
  <circle cx="52" cy="30" r="6" fill="#FFFFFF"/>
  <circle cx="52" cy="30" r="4" fill="#FF0000"/>
  <circle cx="52" cy="30" r="2" fill="#FFFFFF"/>
  
  <!-- Text -->
  <text x="68" y="22" font-family="Arial, sans-serif" font-size="12" font-weight="bold" fill="#FFFFFF">SINGAPORE</text>
  <text x="68" y="35" font-family="Arial, sans-serif" font-size="12" font-weight="bold" fill="#FFFFFF">FINANCIAL</text>
  <text x="68" y="48" font-family="Arial, sans-serif" font-size="12" font-weight="bold" fill="#BC9E7B">CALCULATOR</text>
  
  <!-- Subtitle -->
  <text x="68" y="55" font-family="Arial, sans-serif" font-size="6" fill="#CCCCCC">Professional Financial Planning Tools</text>
</svg>
