<svg width="300" height="80" viewBox="0 0 300 80" xmlns="http://www.w3.org/2000/svg">
  <!-- Background -->
  <rect width="300" height="80" fill="#2D2D2D" rx="10"/>
  
  <!-- Accent stripe -->
  <rect width="300" height="6" fill="#BC9E7B" rx="10"/>
  
  <!-- Logo icon area -->
  <rect x="15" y="20" width="50" height="50" fill="#BC9E7B" rx="6"/>
  
  <!-- Calculator icon -->
  <rect x="20" y="25" width="40" height="40" fill="#FFFFFF" rx="3"/>
  <rect x="22" y="27" width="36" height="6" fill="#2D2D2D" rx="2"/>
  
  <!-- Calculator display -->
  <rect x="24" y="29" width="32" height="4" fill="#4CAF50" rx="1"/>
  <text x="28" y="32" font-family="monospace" font-size="3" fill="#FFFFFF">S$1,234,567</text>
  
  <!-- Calculator buttons -->
  <rect x="24" y="36" width="6" height="4" fill="#BC9E7B" rx="1"/>
  <rect x="32" y="36" width="6" height="4" fill="#BC9E7B" rx="1"/>
  <rect x="40" y="36" width="6" height="4" fill="#BC9E7B" rx="1"/>
  <rect x="48" y="36" width="6" height="4" fill="#BC9E7B" rx="1"/>
  
  <rect x="24" y="42" width="6" height="4" fill="#BC9E7B" rx="1"/>
  <rect x="32" y="42" width="6" height="4" fill="#BC9E7B" rx="1"/>
  <rect x="40" y="42" width="6" height="4" fill="#BC9E7B" rx="1"/>
  <rect x="48" y="42" width="6" height="4" fill="#BC9E7B" rx="1"/>
  
  <rect x="24" y="48" width="6" height="4" fill="#BC9E7B" rx="1"/>
  <rect x="32" y="48" width="6" height="4" fill="#BC9E7B" rx="1"/>
  <rect x="40" y="48" width="6" height="4" fill="#BC9E7B" rx="1"/>
  <rect x="48" y="48" width="6" height="4" fill="#BC9E7B" rx="1"/>
  
  <rect x="24" y="54" width="6" height="4" fill="#BC9E7B" rx="1"/>
  <rect x="32" y="54" width="6" height="4" fill="#BC9E7B" rx="1"/>
  <rect x="40" y="54" width="6" height="4" fill="#BC9E7B" rx="1"/>
  <rect x="48" y="54" width="6" height="4" fill="#BC9E7B" rx="1"/>
  
  <!-- Singapore flag icon -->
  <circle cx="80" cy="45" r="12" fill="#FF0000"/>
  <circle cx="80" cy="45" r="9" fill="#FFFFFF"/>
  <circle cx="80" cy="45" r="6" fill="#FF0000"/>
  <circle cx="80" cy="45" r="3" fill="#FFFFFF"/>
  
  <!-- Text -->
  <text x="100" y="35" font-family="Arial, sans-serif" font-size="16" font-weight="bold" fill="#FFFFFF">SINGAPORE</text>
  <text x="100" y="52" font-family="Arial, sans-serif" font-size="16" font-weight="bold" fill="#FFFFFF">FINANCIAL</text>
  <text x="100" y="69" font-family="Arial, sans-serif" font-size="16" font-weight="bold" fill="#BC9E7B">CALCULATOR</text>
  
  <!-- Subtitle -->
  <text x="100" y="75" font-family="Arial, sans-serif" font-size="8" fill="#CCCCCC">Professional Financial Planning Tools</text>
  
  <!-- Decorative elements -->
  <circle cx="250" cy="25" r="3" fill="#BC9E7B" opacity="0.6"/>
  <circle cx="270" cy="35" r="2" fill="#BC9E7B" opacity="0.4"/>
  <circle cx="260" cy="50" r="2" fill="#BC9E7B" opacity="0.5"/>
  <circle cx="280" cy="60" r="3" fill="#BC9E7B" opacity="0.3"/>
</svg>
